<svg width="2078" height="1187" viewBox="0 0 2078 1187" fill="none" xmlns="http://www.w3.org/2000/svg">
<g clip-path="url(#clip0_2_10)">
<rect width="2078" height="1187" fill="white"/>
<path d="M688 86L793 234L698.5 361.5L603 234L688 86Z" fill="#A3C0D6"/>
<path d="M794 234H1150L1243.5 360H794H700L794 234Z" fill="#A3C0D6"/>
<path d="M1235 86L1340 234L1245.5 361.5L1150 234L1235 86Z" fill="#A3C0D6"/>
<path d="M686.5 86H1236L1151.5 232H962H874.5H793L686.5 86Z" fill="#C83838"/>
<path d="M693 362.5H968.5H1241L1150 486H1050H793.5L693 362.5Z" fill="#C83838"/>
<rect x="955" y="234" width="24" height="126" fill="#C83838"/>
<path d="M201 233H601L695 358.5L201 365V233Z" fill="#C83838"/>
<path d="M201 366.435L601 361H664H697L601 487H201V366.435Z" fill="#C83838"/>
<path d="M1399.35 234H1741V362H1399.35H1246L1342.4 234H1399.35Z" fill="#C83838"/>
<path d="M1340.41 365H1741V487H1340.41L1316.93 451L1296.45 424.5L1247 365H1340.41Z" fill="#C83838"/>
<circle cx="1765.5" cy="442.5" r="29.5" fill="#FFE600"/>
<circle cx="1765.5" cy="299.5" r="29.5" fill="#FFE600"/>
<ellipse rx="84" ry="79.5" transform="matrix(-1 0 0 1 696 497.5)" fill="black" fill-opacity="0.7"/>
<path d="M696 448L708.797 481.858L750.21 481.858L716.706 502.784L729.504 536.642L696 515.716L662.496 536.642L675.294 502.784L641.79 481.858L683.203 481.858L696 448Z" fill="black"/>
<ellipse rx="84" ry="79.5" transform="matrix(-1 0 0 1 1245 497.5)" fill="black" fill-opacity="0.7"/>
<path d="M1245 448L1257.8 481.858L1299.21 481.858L1265.71 502.784L1278.5 536.642L1245 515.716L1211.5 536.642L1224.29 502.784L1190.79 481.858L1232.2 481.858L1245 448Z" fill="black"/>
<path d="M159.741 479.412C155.982 479.295 152.38 478.796 148.934 477.915C145.488 477.033 142.411 475.82 139.704 474.275C137.628 473.09 135.893 471.781 134.501 470.349C133.108 468.941 132.048 467.463 131.321 465.916C130.633 464.368 130.279 462.785 130.258 461.169C130.236 459.552 130.548 457.961 131.194 456.395C131.88 454.828 132.891 453.317 134.225 451.861C135.599 450.404 137.309 449.056 139.353 447.816C141.397 446.576 143.635 445.53 146.068 444.677C148.521 443.836 151.058 443.196 153.679 442.757C156.339 442.318 159.043 442.08 161.79 442.043C164.537 442.007 167.226 442.173 169.857 442.542C172.528 442.911 175.081 443.484 177.515 444.26C179.99 445.035 182.266 446.015 184.342 447.2C187.049 448.746 189.204 450.518 190.806 452.518C192.429 454.505 193.386 456.609 193.678 458.828L181.522 460.737C181.602 459.179 181.128 457.681 180.099 456.244C179.09 454.796 177.628 453.525 175.715 452.433C173.781 451.329 171.609 450.514 169.198 449.987C166.787 449.461 164.329 449.214 161.825 449.247C159.341 449.268 156.89 449.58 154.474 450.183C152.078 450.774 149.938 451.64 148.054 452.783C146.171 453.925 144.764 455.21 143.833 456.637C142.923 458.052 142.477 459.496 142.497 460.97C142.516 462.444 143.01 463.882 143.978 465.284C144.946 466.686 146.397 467.939 148.331 469.042C150.244 470.134 152.437 470.961 154.909 471.523C157.401 472.072 159.97 472.3 162.615 472.205L159.741 479.412Z" fill="#FFC700"/>
<path d="M263.364 543.217L231.1 528.904L270.845 497.889L280.068 501.981L248.278 526.788L271.319 537.01L263.364 543.217Z" fill="#FFC700"/>
<path d="M380.426 576.4L387.457 569.164C388.421 568.173 389.072 567.154 389.41 566.108C389.787 565.053 389.861 564.051 389.632 563.104C389.402 562.157 388.879 561.301 388.061 560.535C387.281 559.76 386.236 559.152 384.926 558.711C383.615 558.27 382.183 558.045 380.63 558.036C379.116 558.017 377.607 558.189 376.103 558.554C374.6 558.918 373.16 559.459 371.783 560.178C370.445 560.888 369.294 561.739 368.331 562.73L361.299 569.966L380.426 576.4ZM375.95 594.065L366.387 590.848L373.419 583.611L354.292 577.177L347.261 584.413L337.731 581.208L358.801 559.524C360.745 557.524 363.066 555.818 365.764 554.406C368.479 552.978 371.328 551.895 374.313 551.16C377.319 550.432 380.345 550.078 383.391 550.099C386.458 550.127 389.314 550.586 391.957 551.475C394.601 552.364 396.71 553.576 398.285 555.109C399.883 556.65 400.911 558.368 401.37 560.262C401.828 562.156 401.7 564.153 400.985 566.254C400.286 568.339 398.964 570.381 397.02 572.381L375.95 594.065Z" fill="#FFC700"/>
<path d="M496.86 603.362C498.049 601.648 499.553 600.134 501.37 598.818C503.187 597.502 505.144 596.445 507.24 595.645C509.373 594.832 511.556 594.312 513.788 594.084C516.019 593.857 518.149 593.986 520.178 594.474L542.671 599.877L536.918 608.166L514.425 602.763C513.742 602.599 513.03 602.551 512.291 602.621C511.551 602.69 510.82 602.863 510.097 603.138C509.41 603.4 508.767 603.751 508.169 604.192C507.571 604.632 507.072 605.141 506.671 605.719C506.27 606.297 506.015 606.876 505.905 607.456C505.808 608.017 505.842 608.542 506.008 609.031C506.21 609.506 506.534 609.921 506.979 610.275C507.425 610.629 507.989 610.888 508.673 611.052L518.484 613.409C520.512 613.897 522.188 614.681 523.511 615.763C524.87 616.831 525.817 618.091 526.35 619.545C526.92 620.985 527.053 622.556 526.749 624.258C526.482 625.946 525.753 627.646 524.564 629.36C523.375 631.074 521.872 632.589 520.055 633.905C518.261 635.226 516.297 636.293 514.164 637.106C512.067 637.905 509.892 638.416 507.637 638.638C505.405 638.866 503.275 638.736 501.247 638.249L479.472 633.018L485.224 624.728L506.999 629.959C507.683 630.124 508.394 630.171 509.134 630.102C509.873 630.032 510.587 629.866 511.273 629.605C511.996 629.329 512.657 628.971 513.255 628.531C513.853 628.09 514.353 627.581 514.754 627.003C515.154 626.426 515.403 625.856 515.5 625.296C515.597 624.735 515.544 624.217 515.342 623.741C515.176 623.252 514.871 622.831 514.425 622.476C513.98 622.122 513.415 621.863 512.731 621.699L502.921 619.342C500.892 618.855 499.217 618.07 497.893 616.989C496.57 615.907 495.624 614.646 495.054 613.206C494.521 611.753 494.388 610.182 494.655 608.494C494.936 606.786 495.671 605.076 496.86 603.362Z" fill="#FFC700"/>
<path d="M632.066 637.914C632.928 636.014 634.13 634.294 635.673 632.753C637.216 631.212 638.939 629.928 640.844 628.901C642.782 627.857 644.818 627.113 646.953 626.672C649.089 626.23 651.187 626.171 653.247 626.494L676.1 630.085L671.93 639.273L649.077 635.682C648.383 635.573 647.681 635.589 646.973 635.729C646.264 635.869 645.581 636.116 644.925 636.47C644.301 636.806 643.735 637.232 643.229 637.747C642.722 638.262 642.324 638.839 642.033 639.48C641.743 640.12 641.594 640.748 641.587 641.364C641.59 641.959 641.714 642.505 641.961 643.001C642.24 643.479 642.627 643.883 643.122 644.212C643.618 644.542 644.213 644.761 644.907 644.87L654.875 646.436C656.936 646.76 658.704 647.426 660.181 648.436C661.69 649.428 662.831 650.658 663.602 652.129C664.406 653.581 664.808 655.21 664.807 657.016C664.838 658.805 664.423 660.649 663.561 662.548C662.699 664.448 661.496 666.168 659.954 667.709C658.434 669.254 656.705 670.548 654.768 671.593C652.863 672.62 650.832 673.352 648.673 673.79C646.538 674.232 644.44 674.291 642.379 673.967L620.256 670.491L624.426 661.304L646.549 664.78C647.244 664.889 647.945 664.873 648.654 664.733C649.362 664.593 650.029 664.355 650.653 664.018C651.309 663.664 651.891 663.23 652.398 662.715C652.904 662.2 653.303 661.622 653.593 660.982C653.884 660.342 654.028 659.724 654.025 659.129C654.022 658.534 653.881 657.998 653.602 657.52C653.356 657.024 652.985 656.611 652.49 656.282C651.994 655.952 651.399 655.733 650.705 655.624L640.737 654.058C638.677 653.734 636.908 653.067 635.431 652.058C633.955 651.049 632.814 649.818 632.01 648.365C631.239 646.895 630.837 645.266 630.805 643.477C630.783 641.668 631.204 639.813 632.066 637.914Z" fill="#FFC700"/>
<path d="M782.419 696.074L772.378 695.084L786.181 646.597L796.222 647.586L782.419 696.074Z" fill="#FFC700"/>
<path d="M886.295 701.039C883.72 702.947 880.918 704.377 877.889 705.331C874.861 706.285 871.789 706.699 868.675 706.574C866.286 706.477 864.016 706.07 861.864 705.352C859.733 704.658 857.761 703.713 855.947 702.517C854.16 701.299 852.562 699.866 851.154 698.219C849.746 696.572 848.579 694.771 847.654 692.815C846.755 690.838 846.117 688.742 845.739 686.528C845.388 684.292 845.35 681.987 845.627 679.612C845.903 677.238 846.475 674.957 847.341 672.77C848.231 670.584 849.349 668.559 850.696 666.695C852.068 664.809 853.643 663.107 855.42 661.588C857.196 660.069 859.11 658.789 861.16 657.749C863.237 656.687 865.411 655.898 867.683 655.381C869.981 654.842 872.324 654.621 874.713 654.717C877.828 654.843 880.775 655.499 883.554 656.687C886.336 657.852 888.78 659.494 890.886 661.614L884.53 670.129C883.239 668.486 881.635 667.205 879.718 666.286C877.805 665.344 875.747 664.828 873.546 664.739C871.321 664.65 869.188 664.985 867.147 665.744C865.105 666.504 863.275 667.576 861.655 668.961C860.037 670.323 858.693 671.964 857.623 673.886C856.555 675.784 855.893 677.827 855.638 680.016C855.384 682.204 855.565 684.281 856.183 686.248C856.804 688.191 857.756 689.913 859.04 691.415C860.324 692.917 861.889 694.126 863.735 695.042C865.581 695.959 867.617 696.462 869.842 696.552C872.043 696.64 874.199 696.306 876.311 695.549C878.425 694.769 880.312 693.617 881.972 692.094L886.295 701.039Z" fill="#FFC700"/>
<path d="M1123.2 705.213L1088 707.745L1077.74 658.385L1087.81 657.661L1096.01 697.142L1121.15 695.334L1123.2 705.213Z" fill="#FFC700"/>
<path d="M1259.17 670.489C1260.27 673.05 1260.79 675.539 1260.72 677.955C1260.64 680.349 1260.06 682.52 1258.97 684.469C1257.88 686.396 1256.32 688.025 1254.31 689.357C1252.31 690.685 1249.94 691.555 1247.18 691.966C1244.42 692.378 1241.62 692.281 1238.77 691.675C1235.94 691.066 1233.26 690.068 1230.74 688.68C1228.23 687.268 1225.97 685.52 1223.97 683.437C1221.95 681.332 1220.39 679 1219.28 676.438L1207.31 648.639L1217.25 647.156L1229.23 674.955C1229.78 676.225 1230.55 677.381 1231.54 678.424C1232.55 679.464 1233.69 680.336 1234.96 681.041C1236.23 681.746 1237.57 682.255 1238.99 682.571C1240.42 682.861 1241.82 682.904 1243.19 682.7C1244.55 682.496 1245.74 682.067 1246.74 681.414C1247.76 680.736 1248.53 679.909 1249.08 678.935C1249.62 677.961 1249.9 676.876 1249.93 675.681C1249.98 674.482 1249.74 673.248 1249.19 671.978L1237.21 644.179L1247.19 642.69L1259.17 670.489Z" fill="#FFC700"/>
<path d="M1425.61 657.145L1413.7 659.934L1395.13 648.664L1394.77 664.367L1382.92 667.14L1383.86 642.734L1354.68 625.382L1366.52 622.609L1385.12 633.871L1385.45 618.176L1397.36 615.387L1396.43 639.792L1425.61 657.145Z" fill="#FFC700"/>
<path d="M1547.32 602.385C1549.24 604.408 1550.54 606.477 1551.24 608.591C1551.91 610.688 1552.01 612.685 1551.53 614.582C1551.04 616.461 1549.99 618.168 1548.37 619.701C1546.78 621.227 1544.66 622.425 1542.01 623.295C1539.36 624.166 1536.51 624.603 1533.44 624.606C1530.4 624.602 1527.39 624.23 1524.41 623.492C1521.44 622.729 1518.61 621.628 1515.93 620.189C1513.24 618.733 1510.93 616.994 1509.01 614.971L1488.17 593.015L1497.72 589.876L1518.56 611.833C1519.51 612.836 1520.65 613.699 1521.98 614.422C1523.33 615.138 1524.76 615.684 1526.26 616.062C1527.75 616.44 1529.27 616.634 1530.8 616.645C1532.33 616.631 1533.75 616.408 1535.07 615.977C1536.38 615.545 1537.44 614.952 1538.24 614.198C1539.05 613.419 1539.58 612.555 1539.82 611.607C1540.06 610.659 1540 609.662 1539.65 608.617C1539.32 607.565 1538.69 606.537 1537.73 605.534L1516.9 583.578L1526.48 580.429L1547.32 602.385Z" fill="#FFC700"/>
<path d="M1640.67 549.011L1656.55 561.466L1665.78 557.393C1667.04 556.834 1668.03 556.15 1668.74 555.34C1669.43 554.515 1669.83 553.636 1669.95 552.703C1670.07 551.77 1669.88 550.823 1669.4 549.862C1668.91 548.878 1668.12 547.959 1667.04 547.106C1665.95 546.252 1664.68 545.558 1663.23 545.024C1661.78 544.465 1660.28 544.088 1658.72 543.893C1657.16 543.698 1655.63 543.687 1654.11 543.861C1652.57 544.02 1651.16 544.379 1649.9 544.938L1640.67 549.011ZM1672.4 573.9L1663.16 577.973L1623.5 546.857L1641.96 538.71C1643.65 537.962 1645.48 537.395 1647.43 537.008C1649.36 536.607 1651.36 536.383 1653.41 536.336C1655.46 536.266 1657.54 536.368 1659.63 536.643C1661.72 536.893 1663.76 537.307 1665.73 537.882C1667.73 538.449 1669.61 539.165 1671.39 540.032C1673.18 540.889 1674.81 541.889 1676.27 543.032C1677.63 544.103 1678.76 545.234 1679.64 546.426C1680.54 547.609 1681.2 548.822 1681.61 550.065C1682.05 551.298 1682.22 552.534 1682.12 553.774C1682.03 555.014 1681.67 556.209 1681.06 557.36L1696.55 563.24L1686.74 567.569L1674.73 563.073L1664.46 567.672L1672.4 573.9Z" fill="#FFC700"/>
<path d="M1804.86 507.653L1796.14 512.656L1782.62 504.5C1780.21 505.318 1777.66 505.872 1774.97 506.163C1772.3 506.443 1769.65 506.473 1767.03 506.254C1764.38 506.022 1761.84 505.554 1759.41 504.85C1756.97 504.121 1754.76 503.158 1752.77 501.959L1739.83 494.148L1748.58 489.128L1761.52 496.938C1762.71 497.653 1764.06 498.203 1765.57 498.588C1767.08 498.949 1768.62 499.139 1770.2 499.156C1771.77 499.174 1773.32 499.018 1774.84 498.69C1776.36 498.339 1777.72 497.819 1778.92 497.131C1780.11 496.443 1781.02 495.662 1781.64 494.789C1782.25 493.893 1782.57 492.981 1782.58 492.054C1782.59 491.127 1782.29 490.22 1781.7 489.334C1781.1 488.424 1780.21 487.611 1779.03 486.897L1766.09 479.086L1774.81 474.083L1787.75 481.894C1789.74 483.093 1791.31 484.423 1792.46 485.887C1793.62 487.326 1794.36 488.826 1794.69 490.387C1794.99 491.936 1794.87 493.492 1794.33 495.055C1793.79 496.618 1792.79 498.099 1791.34 499.497L1804.86 507.653Z" fill="#FFC700"/>
<path d="M1003.72 415.328C994.344 423.391 983.844 429.578 972.219 433.891C960.594 438.203 948.547 440.359 936.078 440.359C926.516 440.359 917.281 439.094 908.375 436.562C899.562 434.125 891.266 430.656 883.484 426.156C875.797 421.562 868.766 416.078 862.391 409.703C856.016 403.328 850.531 396.297 845.938 388.609C841.438 380.828 837.922 372.531 835.391 363.719C832.953 354.812 831.734 345.578 831.734 336.016C831.734 326.453 832.953 317.219 835.391 308.312C837.922 299.406 841.438 291.109 845.938 283.422C850.531 275.641 856.016 268.562 862.391 262.188C868.766 255.812 875.797 250.375 883.484 245.875C891.266 241.281 899.562 237.766 908.375 235.328C917.281 232.797 926.516 231.531 936.078 231.531C948.547 231.531 960.594 233.688 972.219 238C983.844 242.219 994.344 248.406 1003.72 256.562L982.344 291.719C976.438 285.344 969.453 280.469 961.391 277.094C953.328 273.625 944.891 271.891 936.078 271.891C927.172 271.891 918.828 273.578 911.047 276.953C903.266 280.328 896.469 284.922 890.656 290.734C884.844 296.453 880.25 303.25 876.875 311.125C873.5 318.906 871.812 327.203 871.812 336.016C871.812 344.828 873.5 353.125 876.875 360.906C880.25 368.594 884.844 375.344 890.656 381.156C896.469 386.969 903.266 391.562 911.047 394.938C918.828 398.312 927.172 400 936.078 400C944.891 400 953.328 398.312 961.391 394.938C969.453 391.469 976.438 386.547 982.344 380.172L1003.72 415.328ZM1168.39 436H1027.2V234.344H1067.56V395.641H1168.39V436Z" fill="black"/>
</g>
<defs>
<clipPath id="clip0_2_10">
<rect width="2078" height="1187" fill="white"/>
</clipPath>
</defs>
</svg>
