<svg width="2010" height="1187" viewBox="0 0 2010 1187" fill="none" xmlns="http://www.w3.org/2000/svg">
<g clip-path="url(#clip0_51_7)">
<rect width="2010" height="1187" fill="white"/>
<path d="M691 229L796 377L701.5 504.5L606 377L691 229Z" fill="#A2A2A2"/>
<path d="M797 377H1153L1246.5 503H797H703L797 377Z" fill="#A2A2A2"/>
<path d="M1238 229L1343 377L1248.5 504.5L1153 377L1238 229Z" fill="#A2A2A2"/>
<path d="M689.5 229H1239L1154.5 375H965H877.5H796L689.5 229Z" fill="#8F8F8F"/>
<path d="M696 505.5H971.5H1244L1153 629H1053H796.5L696 505.5Z" fill="#8F8F8F"/>
<rect x="958" y="377" width="24" height="126" fill="#8F8F8F"/>
<path d="M204 376H604L698 501.5L204 508V376Z" fill="#8F8F8F"/>
<path d="M204 509.435L604 504H667H700L604 630H204V509.435Z" fill="#8F8F8F"/>
<path d="M1402.35 377H1744V505H1402.35H1249L1345.4 377H1402.35Z" fill="#8F8F8F"/>
<path d="M1343.41 508H1744V630H1343.41L1319.93 594L1299.45 567.5L1250 508H1343.41Z" fill="#8F8F8F"/>
<circle cx="1768.5" cy="585.5" r="29.5" fill="#8F8F8F"/>
<circle cx="1768.5" cy="442.5" r="29.5" fill="#8F8F8F"/>
<ellipse rx="84" ry="79.5" transform="matrix(-1 0 0 1 699 640.5)" fill="#8F8F8F" fill-opacity="0.7"/>
<path d="M699 591L711.797 624.858L753.21 624.858L719.706 645.784L732.504 679.642L699 658.716L665.496 679.642L678.294 645.784L644.79 624.858L686.203 624.858L699 591Z" fill="#A1A1A1"/>
<ellipse rx="84" ry="79.5" transform="matrix(-1 0 0 1 1248 640.5)" fill="#8F8F8F" fill-opacity="0.7"/>
<path d="M1248 591L1260.8 624.858L1302.21 624.858L1268.71 645.784L1281.5 679.642L1248 658.716L1214.5 679.642L1227.29 645.784L1193.79 624.858L1235.2 624.858L1248 591Z" fill="#A1A1A1"/>
<path d="M162.741 622.412C158.982 622.295 155.379 621.796 151.934 620.915C148.488 620.033 145.411 618.82 142.704 617.275C140.628 616.09 138.893 614.781 137.501 613.349C136.108 611.941 135.048 610.463 134.321 608.916C133.633 607.368 133.279 605.785 133.258 604.169C133.236 602.552 133.548 600.961 134.194 599.395C134.88 597.828 135.89 596.317 137.225 594.861C138.599 593.404 140.308 592.056 142.352 590.816C144.396 589.576 146.635 588.53 149.068 587.677C151.521 586.836 154.058 586.196 156.678 585.757C159.339 585.318 162.043 585.08 164.79 585.043C167.537 585.007 170.226 585.173 172.857 585.542C175.528 585.911 178.081 586.484 180.515 587.26C182.99 588.035 185.266 589.015 187.342 590.2C190.049 591.746 192.204 593.518 193.806 595.518C195.428 597.505 196.386 599.609 196.678 601.828L184.522 603.737C184.602 602.179 184.128 600.681 183.099 599.244C182.09 597.796 180.628 596.525 178.715 595.433C176.781 594.329 174.609 593.514 172.198 592.987C169.787 592.461 167.329 592.214 164.825 592.247C162.34 592.268 159.89 592.58 157.474 593.183C155.078 593.774 152.938 594.64 151.054 595.783C149.171 596.925 147.764 598.21 146.833 599.637C145.923 601.052 145.477 602.496 145.497 603.97C145.516 605.444 146.01 606.882 146.978 608.284C147.946 609.686 149.397 610.939 151.331 612.042C153.244 613.134 155.437 613.961 157.909 614.523C160.401 615.072 162.97 615.3 165.615 615.205L162.741 622.412Z" fill="#A2A2A2"/>
<path d="M266.364 686.217L234.1 671.904L273.845 640.889L283.068 644.981L251.278 669.788L274.319 680.01L266.364 686.217Z" fill="#A2A2A2"/>
<path d="M383.426 719.4L390.457 712.164C391.421 711.173 392.072 710.154 392.41 709.108C392.787 708.053 392.861 707.051 392.632 706.104C392.402 705.157 391.879 704.301 391.061 703.535C390.281 702.76 389.236 702.152 387.925 701.711C386.615 701.27 385.183 701.045 383.63 701.036C382.115 701.017 380.607 701.189 379.103 701.554C377.6 701.918 376.16 702.459 374.783 703.178C373.445 703.888 372.294 704.739 371.331 705.73L364.299 712.966L383.426 719.4ZM378.95 737.065L369.387 733.848L376.418 726.611L357.292 720.177L350.26 727.413L340.731 724.208L361.801 702.524C363.744 700.524 366.065 698.818 368.764 697.406C371.478 695.978 374.328 694.895 377.313 694.16C380.319 693.432 383.345 693.078 386.391 693.099C389.458 693.127 392.314 693.586 394.957 694.475C397.601 695.364 399.71 696.576 401.285 698.109C402.883 699.65 403.911 701.368 404.369 703.262C404.828 705.156 404.7 707.153 403.984 709.254C403.285 711.339 401.964 713.381 400.02 715.381L378.95 737.065Z" fill="#A2A2A2"/>
<path d="M499.86 746.362C501.049 744.648 502.553 743.134 504.37 741.818C506.187 740.502 508.144 739.445 510.24 738.645C512.373 737.832 514.556 737.312 516.788 737.084C519.019 736.857 521.149 736.986 523.178 737.474L545.671 742.877L539.918 751.166L517.425 745.763C516.742 745.599 516.03 745.551 515.291 745.621C514.551 745.69 513.82 745.863 513.097 746.138C512.41 746.4 511.767 746.751 511.169 747.192C510.571 747.632 510.072 748.141 509.671 748.719C509.27 749.297 509.015 749.876 508.905 750.456C508.808 751.017 508.842 751.542 509.008 752.031C509.21 752.506 509.534 752.921 509.979 753.275C510.425 753.629 510.989 753.888 511.673 754.052L521.484 756.409C523.512 756.897 525.188 757.681 526.511 758.763C527.87 759.831 528.817 761.091 529.35 762.545C529.92 763.985 530.053 765.556 529.749 767.258C529.482 768.946 528.753 770.646 527.564 772.36C526.375 774.074 524.872 775.589 523.055 776.905C521.261 778.226 519.297 779.293 517.164 780.106C515.067 780.905 512.892 781.416 510.637 781.638C508.405 781.866 506.275 781.736 504.247 781.249L482.472 776.018L488.224 767.728L509.999 772.959C510.683 773.124 511.394 773.171 512.134 773.102C512.873 773.032 513.587 772.866 514.273 772.605C514.996 772.329 515.657 771.971 516.255 771.531C516.853 771.09 517.353 770.581 517.754 770.003C518.154 769.426 518.403 768.856 518.5 768.296C518.597 767.735 518.544 767.217 518.342 766.741C518.176 766.252 517.871 765.831 517.425 765.476C516.98 765.122 516.415 764.863 515.731 764.699L505.921 762.342C503.892 761.855 502.217 761.07 500.893 759.989C499.57 758.907 498.624 757.646 498.054 756.206C497.521 754.753 497.388 753.182 497.655 751.494C497.936 749.786 498.671 748.076 499.86 746.362Z" fill="#A2A2A2"/>
<path d="M635.066 780.914C635.928 779.014 637.13 777.294 638.673 775.753C640.216 774.212 641.939 772.928 643.844 771.901C645.782 770.857 647.818 770.113 649.953 769.672C652.089 769.23 654.187 769.171 656.247 769.494L679.1 773.085L674.93 782.273L652.077 778.682C651.383 778.573 650.681 778.589 649.973 778.729C649.264 778.869 648.581 779.116 647.925 779.47C647.301 779.806 646.735 780.232 646.229 780.747C645.722 781.262 645.324 781.839 645.033 782.48C644.742 783.12 644.594 783.748 644.587 784.364C644.59 784.959 644.714 785.505 644.96 786.001C645.239 786.479 645.627 786.883 646.122 787.212C646.618 787.542 647.213 787.761 647.907 787.87L657.875 789.436C659.935 789.76 661.704 790.426 663.181 791.436C664.69 792.428 665.831 793.658 666.602 795.129C667.406 796.581 667.808 798.21 667.807 800.016C667.838 801.805 667.423 803.649 666.561 805.548C665.699 807.448 664.496 809.168 662.954 810.709C661.434 812.254 659.705 813.548 657.768 814.593C655.863 815.62 653.831 816.352 651.673 816.79C649.538 817.232 647.44 817.291 645.379 816.967L623.256 813.491L627.426 804.304L649.549 807.78C650.244 807.889 650.945 807.873 651.654 807.733C652.362 807.593 653.029 807.355 653.653 807.018C654.309 806.664 654.891 806.23 655.398 805.715C655.904 805.2 656.303 804.622 656.593 803.982C656.884 803.342 657.028 802.724 657.025 802.129C657.022 801.534 656.881 800.998 656.602 800.52C656.356 800.024 655.985 799.611 655.49 799.282C654.994 798.952 654.399 798.733 653.705 798.624L643.737 797.058C641.676 796.734 639.908 796.067 638.431 795.058C636.955 794.049 635.814 792.818 635.01 791.365C634.238 789.895 633.837 788.266 633.805 786.477C633.783 784.668 634.203 782.813 635.066 780.914Z" fill="#A2A2A2"/>
<path d="M785.419 839.074L775.378 838.084L789.181 789.597L799.222 790.586L785.419 839.074Z" fill="#A2A2A2"/>
<path d="M889.295 844.039C886.72 845.947 883.918 847.377 880.889 848.331C877.861 849.285 874.789 849.699 871.675 849.574C869.286 849.477 867.016 849.07 864.864 848.352C862.733 847.658 860.761 846.713 858.947 845.517C857.16 844.299 855.562 842.866 854.154 841.219C852.746 839.572 851.579 837.771 850.654 835.815C849.755 833.838 849.117 831.742 848.739 829.528C848.388 827.292 848.35 824.987 848.627 822.612C848.903 820.238 849.475 817.957 850.341 815.77C851.231 813.584 852.349 811.559 853.696 809.695C855.068 807.809 856.643 806.107 858.42 804.588C860.196 803.069 862.11 801.789 864.16 800.749C866.237 799.687 868.411 798.898 870.683 798.381C872.981 797.842 875.324 797.621 877.713 797.717C880.828 797.843 883.775 798.499 886.554 799.687C889.336 800.852 891.78 802.494 893.886 804.614L887.53 813.129C886.239 811.486 884.635 810.205 882.718 809.286C880.805 808.344 878.747 807.828 876.546 807.739C874.321 807.65 872.188 807.985 870.147 808.744C868.105 809.504 866.275 810.576 864.655 811.961C863.037 813.323 861.693 814.964 860.623 816.886C859.555 818.784 858.893 820.827 858.638 823.016C858.384 825.204 858.565 827.281 859.183 829.248C859.804 831.191 860.756 832.913 862.04 834.415C863.324 835.917 864.889 837.126 866.735 838.042C868.581 838.959 870.617 839.462 872.842 839.552C875.043 839.64 877.199 839.306 879.311 838.549C881.425 837.769 883.312 836.617 884.972 835.094L889.295 844.039Z" fill="#A2A2A2"/>
<path d="M1126.2 848.213L1091 850.745L1080.74 801.385L1090.81 800.661L1099.01 840.142L1124.15 838.334L1126.2 848.213Z" fill="#A2A2A2"/>
<path d="M1262.17 813.489C1263.27 816.05 1263.79 818.539 1263.72 820.955C1263.64 823.349 1263.06 825.52 1261.97 827.469C1260.88 829.396 1259.32 831.025 1257.31 832.357C1255.31 833.685 1252.94 834.555 1250.18 834.966C1247.42 835.378 1244.62 835.281 1241.77 834.675C1238.94 834.066 1236.26 833.068 1233.74 831.68C1231.23 830.268 1228.97 828.52 1226.97 826.437C1224.95 824.332 1223.39 822 1222.28 819.438L1210.31 791.639L1220.25 790.156L1232.23 817.955C1232.78 819.225 1233.55 820.381 1234.54 821.424C1235.55 822.464 1236.69 823.336 1237.96 824.041C1239.23 824.746 1240.57 825.255 1241.99 825.571C1243.42 825.861 1244.82 825.904 1246.19 825.7C1247.55 825.496 1248.74 825.067 1249.74 824.414C1250.76 823.736 1251.53 822.909 1252.08 821.935C1252.62 820.961 1252.9 819.876 1252.93 818.681C1252.98 817.482 1252.74 816.248 1252.19 814.978L1240.21 787.179L1250.19 785.69L1262.17 813.489Z" fill="#A2A2A2"/>
<path d="M1428.61 800.145L1416.7 802.934L1398.13 791.664L1397.77 807.367L1385.92 810.14L1386.86 785.734L1357.68 768.382L1369.52 765.609L1388.12 776.871L1388.45 761.176L1400.36 758.387L1399.43 782.792L1428.61 800.145Z" fill="#A2A2A2"/>
<path d="M1550.32 745.385C1552.24 747.408 1553.54 749.477 1554.24 751.591C1554.91 753.688 1555.01 755.685 1554.53 757.582C1554.04 759.461 1552.99 761.168 1551.37 762.701C1549.78 764.227 1547.66 765.425 1545.01 766.295C1542.36 767.166 1539.51 767.603 1536.44 767.606C1533.4 767.602 1530.39 767.23 1527.41 766.492C1524.44 765.729 1521.61 764.628 1518.93 763.189C1516.24 761.733 1513.93 759.994 1512.01 757.971L1491.17 736.015L1500.72 732.876L1521.56 754.833C1522.51 755.836 1523.65 756.699 1524.98 757.422C1526.33 758.138 1527.76 758.684 1529.26 759.062C1530.75 759.44 1532.27 759.634 1533.8 759.645C1535.33 759.631 1536.75 759.408 1538.07 758.977C1539.38 758.545 1540.44 757.952 1541.24 757.198C1542.05 756.419 1542.58 755.555 1542.82 754.607C1543.06 753.659 1543 752.662 1542.65 751.617C1542.32 750.565 1541.69 749.537 1540.73 748.534L1519.9 726.578L1529.48 723.429L1550.32 745.385Z" fill="#A2A2A2"/>
<path d="M1643.67 692.011L1659.55 704.466L1668.78 700.393C1670.04 699.834 1671.03 699.15 1671.74 698.34C1672.43 697.515 1672.83 696.636 1672.95 695.703C1673.07 694.77 1672.88 693.823 1672.4 692.862C1671.91 691.878 1671.12 690.959 1670.04 690.106C1668.95 689.252 1667.68 688.558 1666.23 688.024C1664.78 687.465 1663.28 687.088 1661.72 686.893C1660.16 686.698 1658.63 686.687 1657.11 686.861C1655.57 687.02 1654.16 687.379 1652.9 687.938L1643.67 692.011ZM1675.4 716.9L1666.16 720.973L1626.5 689.857L1644.96 681.71C1646.65 680.962 1648.48 680.395 1650.43 680.008C1652.36 679.607 1654.36 679.383 1656.41 679.336C1658.46 679.266 1660.54 679.368 1662.63 679.643C1664.72 679.893 1666.76 680.307 1668.73 680.882C1670.73 681.449 1672.61 682.165 1674.39 683.032C1676.18 683.889 1677.81 684.889 1679.27 686.032C1680.63 687.103 1681.76 688.234 1682.64 689.426C1683.54 690.609 1684.2 691.822 1684.61 693.065C1685.05 694.298 1685.22 695.534 1685.12 696.774C1685.03 698.014 1684.67 699.209 1684.06 700.36L1699.55 706.24L1689.74 710.569L1677.73 706.073L1667.46 710.672L1675.4 716.9Z" fill="#A2A2A2"/>
<path d="M1807.86 650.653L1799.14 655.656L1785.62 647.5C1783.21 648.318 1780.66 648.872 1777.97 649.163C1775.3 649.443 1772.65 649.473 1770.03 649.254C1767.38 649.022 1764.84 648.554 1762.41 647.85C1759.97 647.121 1757.76 646.158 1755.77 644.959L1742.83 637.148L1751.58 632.128L1764.52 639.938C1765.71 640.653 1767.06 641.203 1768.57 641.588C1770.08 641.949 1771.62 642.139 1773.2 642.156C1774.77 642.174 1776.32 642.018 1777.84 641.69C1779.36 641.339 1780.72 640.819 1781.92 640.131C1783.11 639.443 1784.02 638.662 1784.64 637.789C1785.25 636.893 1785.57 635.981 1785.58 635.054C1785.59 634.127 1785.29 633.22 1784.7 632.334C1784.1 631.424 1783.21 630.611 1782.03 629.897L1769.09 622.086L1777.81 617.083L1790.75 624.894C1792.74 626.093 1794.31 627.423 1795.46 628.887C1796.62 630.326 1797.36 631.826 1797.69 633.387C1797.99 634.936 1797.87 636.492 1797.33 638.055C1796.79 639.618 1795.79 641.099 1794.34 642.497L1807.86 650.653Z" fill="#A2A2A2"/>
<path d="M1006.72 558.328C997.344 566.391 986.844 572.578 975.219 576.891C963.594 581.203 951.547 583.359 939.078 583.359C929.516 583.359 920.281 582.094 911.375 579.562C902.562 577.125 894.266 573.656 886.484 569.156C878.797 564.562 871.766 559.078 865.391 552.703C859.016 546.328 853.531 539.297 848.938 531.609C844.438 523.828 840.922 515.531 838.391 506.719C835.953 497.812 834.734 488.578 834.734 479.016C834.734 469.453 835.953 460.219 838.391 451.312C840.922 442.406 844.438 434.109 848.938 426.422C853.531 418.641 859.016 411.562 865.391 405.188C871.766 398.812 878.797 393.375 886.484 388.875C894.266 384.281 902.562 380.766 911.375 378.328C920.281 375.797 929.516 374.531 939.078 374.531C951.547 374.531 963.594 376.688 975.219 381C986.844 385.219 997.344 391.406 1006.72 399.562L985.344 434.719C979.438 428.344 972.453 423.469 964.391 420.094C956.328 416.625 947.891 414.891 939.078 414.891C930.172 414.891 921.828 416.578 914.047 419.953C906.266 423.328 899.469 427.922 893.656 433.734C887.844 439.453 883.25 446.25 879.875 454.125C876.5 461.906 874.812 470.203 874.812 479.016C874.812 487.828 876.5 496.125 879.875 503.906C883.25 511.594 887.844 518.344 893.656 524.156C899.469 529.969 906.266 534.562 914.047 537.938C921.828 541.312 930.172 543 939.078 543C947.891 543 956.328 541.312 964.391 537.938C972.453 534.469 979.438 529.547 985.344 523.172L1006.72 558.328ZM1171.39 579H1030.2V377.344H1070.56V538.641H1171.39V579Z" fill="#A2A2A2"/>
</g>
<defs>
<clipPath id="clip0_51_7">
<rect width="2010" height="1187" fill="white"/>
</clipPath>
</defs>
</svg>
